<svg width="32" height="32" viewBox="0 0 32 32" fill="none" xmlns="http://www.w3.org/2000/svg">
<circle cx="16" cy="16" r="16" fill="url(#paint0_linear)"/>
<g filter="url(#filter0_d)">
<path d="M20.5686 11.424C20.4566 11.312 20.2486 11.16 19.9446 10.968C19.6566 10.776 19.2966 10.592 18.8646 10.416C18.4486 10.24 17.9926 10.088 17.4966 9.96C17.0006 9.816 16.4966 9.744 15.9846 9.744C15.0886 9.744 14.4086 9.912 13.9446 10.248C13.4966 10.584 13.2726 11.056 13.2726 11.664C13.2726 12.128 13.4166 12.496 13.7046 12.768C13.9926 13.04 14.4246 13.272 15.0006 13.464C15.5766 13.656 16.2966 13.864 17.1606 14.088C18.2806 14.36 19.2486 14.696 20.0646 15.096C20.8966 15.48 21.5286 15.992 21.9606 16.632C22.4086 17.256 22.6326 18.088 22.6326 19.128C22.6326 20.04 22.4646 20.824 22.1286 21.48C21.7926 22.12 21.3286 22.64 20.7366 23.04C20.1446 23.44 19.4726 23.736 18.7206 23.928C17.9686 24.104 17.1686 24.192 16.3206 24.192C15.4726 24.192 14.6246 24.104 13.7766 23.928C12.9286 23.752 12.1126 23.504 11.3286 23.184C10.5446 22.848 9.82463 22.448 9.16863 21.984L10.6326 19.128C10.7766 19.272 11.0326 19.464 11.4006 19.704C11.7686 19.928 12.2166 20.16 12.7446 20.4C13.2726 20.624 13.8486 20.816 14.4726 20.976C15.0966 21.136 15.7286 21.216 16.3686 21.216C17.2646 21.216 17.9446 21.064 18.4086 20.76C18.8726 20.456 19.1046 20.024 19.1046 19.464C19.1046 18.952 18.9206 18.552 18.5526 18.264C18.1846 17.976 17.6726 17.728 17.0166 17.52C16.3606 17.296 15.5846 17.056 14.6886 16.8C13.6166 16.496 12.7206 16.16 12.0006 15.792C11.2806 15.408 10.7446 14.928 10.3926 14.352C10.0406 13.776 9.86463 13.056 9.86463 12.192C9.86463 11.024 10.1366 10.048 10.6806 9.264C11.2406 8.464 11.9926 7.864 12.9366 7.464C13.8806 7.048 14.9286 6.84 16.0806 6.84C16.8806 6.84 17.6326 6.928 18.3366 7.104C19.0566 7.28 19.7286 7.512 20.3526 7.8C20.9766 8.088 21.5366 8.4 22.0326 8.736L20.5686 11.424Z" fill="black"/>
</g>
<defs>
<filter id="filter0_d" x="5.16862" y="6.84" width="21.464" height="25.352" filterUnits="userSpaceOnUse" color-interpolation-filters="sRGB">
<feFlood flood-opacity="0" result="BackgroundImageFix"/>
<feColorMatrix in="SourceAlpha" type="matrix" values="0 0 0 0 0 0 0 0 0 0 0 0 0 0 0 0 0 0 127 0"/>
<feOffset dy="4"/>
<feGaussianBlur stdDeviation="2"/>
<feColorMatrix type="matrix" values="0 0 0 0 0 0 0 0 0 0 0 0 0 0 0 0 0 0 0.25 0"/>
<feBlend mode="normal" in2="BackgroundImageFix" result="effect1_dropShadow"/>
<feBlend mode="normal" in="SourceGraphic" in2="effect1_dropShadow" result="shape"/>
</filter>
<linearGradient id="paint0_linear" x1="0" y1="0" x2="32" y2="32" gradientUnits="userSpaceOnUse">
<stop stop-color="#9B9B9B"/>
<stop offset="1" stop-color="#696969" stop-opacity="0"/>
</linearGradient>
</defs>
</svg>
